<svg width="500" height="332" viewBox="0 0 500 332" fill="none" xmlns="http://www.w3.org/2000/svg">
<path d="M95.8989 263.12C64.9005 260.905 66.1852 234.902 64.5657 210.203C61.0207 156.135 63.022 107.901 65.2932 54.3043C65.8761 40.5477 69.0859 28.7696 84.3107 23.8794C89.7632 22.1286 95.5646 22.2331 101.23 21.9479L118.395 21.2253L278.158 17.8331C294.584 17.7345 396.652 17.3146 408.918 23.7202C415.032 26.9133 419.02 32.6022 421.075 39.0655C423.091 53.0964 424.018 67.4524 425.147 81.5839C428.934 128.999 430.312 176.738 426.794 224.21C425.643 239.724 422.107 253.651 403.243 256.105C391.721 257.603 376.441 258.048 364.705 258.576C359.443 258.812 353.918 258.712 348.705 259.458C327.587 259.867 306.507 261.928 285.373 261.928V264.824L285.391 265.09C286.886 283.318 323.007 310.84 283.168 312.756C263.435 313.707 242.499 314.613 222.764 314.705C188.239 314.865 198.16 303.695 204.868 280.653C206.263 275.863 207.111 271.162 208.05 266.28C208.2 265.523 208.354 265.17 208.1 264.429C206.947 263.773 187.486 264.118 184.493 264.089L107.122 263.158C103.396 263.1 99.62 262.921 95.8989 263.12ZM416.57 221.426C416.803 219 417.383 216.729 417.72 214.337C388.745 219.551 347.895 219.986 318.333 221.059L227.177 224.195C216.59 224.471 206.076 224.597 195.478 224.597L151.905 224.594C136.073 224.591 120.257 224.586 104.427 224.239L87.0357 223.849C83.353 223.769 79.5937 223.518 75.9265 223.9C76.9106 234.569 76.9082 245.107 87.1946 251.036C93.2759 254.444 106.515 253.019 113.405 253.073L148.697 253.477C226.088 254.466 303.232 252.21 380.473 247.262L394.881 246.333C414.238 245.095 415.181 240.06 416.57 221.426ZM274.598 264.824V263.12C263.181 262.096 246.582 263.414 234.927 263.744L224.889 263.967C221.293 264.033 218.935 262.787 218.51 266.28C216.743 275.52 214.567 284.824 211.313 293.659C210.565 295.691 207.841 301.645 208.323 303.509C211.884 307.202 268.742 303.205 276.266 303.134C300.046 302.912 292.613 302.036 284.421 288.876C279.813 281.474 276.466 273.337 274.598 264.824ZM280.768 28.4434C271.183 28.4375 261.536 28.2344 251.956 28.461L141.488 31.1951C129.302 31.6199 117.099 31.9011 104.921 32.485C73.6213 33.9859 77.042 38.6846 75.4506 64.3189L73.4742 99.2736C72.2865 124.781 72.3203 150.476 73.0512 175.998C73.4033 188.295 74.682 200.572 75.0274 212.861C84.3915 214.265 94.8557 213.435 104.366 213.741C111.605 213.975 118.749 214.183 125.987 214.212L209.839 214.337C213.793 214.36 217.716 214.035 221.665 213.936L251.947 213.091C300.081 211.755 348.315 210.234 396.33 206.426C402.19 205.961 411.659 205.485 417.124 204.182L417.289 204.012L417.132 203.825L417.35 203.731L417.385 203.505L417.104 203.44L417.081 203.083L417.45 202.929C420.199 152.705 417.113 102.191 412.264 52.1951C410.54 34.4214 408.979 32.404 389.641 30.8416C354.242 27.9825 316.495 27.9327 280.768 28.4434Z" fill="#253017"/>
<path d="M421.075 39.0645C424.552 40.4266 427.509 43.3658 428.989 46.7893C431.021 51.4861 432.996 84.5387 433.634 94.1384L435.21 121.504C435.891 133.97 436.065 146.444 436.324 158.92C436.723 178.117 438.272 236.346 432.956 249.607C426.652 265.331 414.013 264.844 400.365 264.835L379.156 264.822C361.862 264.813 344.504 265.169 327.218 264.823H285.373V261.927C306.507 261.927 327.587 259.866 348.705 259.457C353.918 258.711 359.443 258.811 364.705 258.575C376.441 258.047 391.721 257.602 403.243 256.104C422.107 253.65 425.644 239.723 426.794 224.209C430.312 176.737 428.934 128.998 425.147 81.5829C424.019 67.4514 423.091 53.0954 421.075 39.0645Z" fill="#508826"/>
<path d="M400.822 57.2054C400.814 54.7137 400.873 51.9911 400.029 49.6158C395.969 38.187 379.083 45.3396 375.101 43.2359C374.062 42.6877 373.658 41.6307 374.412 40.6552C375.595 39.1263 381.857 39.4341 383.831 39.1988C393.534 38.4935 402.311 40.1534 404.402 51.1606C404.695 52.7021 405.647 61.2959 405.114 62.2307C402.814 66.2653 400.953 59.346 400.822 57.2054Z" fill="#253017"/>
<path d="M250.011 153.728C230.463 156.953 221.354 142.375 219.724 124.861C217.885 105.109 220.461 63.4745 246.923 61.0239C252.384 59.627 259.714 62.5168 264.075 65.7295C287.36 82.89 281.091 149.381 250.011 153.728ZM246.923 70.5264C228.357 74.945 227.385 118.233 230.795 131.904C233.272 141.826 240.324 145.153 250.011 143.726C274.028 134.912 275.945 67.752 246.923 70.5264Z" fill="#253017"/>
<path d="M311.509 153.729L310.851 153.74C287.729 153.94 282.872 135.728 283.027 115.662C283.176 96.3475 288.424 60.7107 314.084 61.0244C352.38 60.4552 351.857 149.438 311.509 153.729ZM312.635 71.1506C295.266 72.0281 292.309 109.651 293.034 121.793C293.854 135.522 297.511 144.842 312.635 143.727C332.817 137.756 334.874 102.288 330.058 86.1697C328.229 80.0451 320.096 67.7229 312.635 71.1506Z" fill="#253017"/>
<path d="M153.583 137.45C156.242 138.111 158.039 139.805 160.3 141.239C175.706 151.012 205.394 141.283 200.257 119.955C197.307 107.71 181.57 104.838 171.066 107.761C166.957 108.905 158.701 113.545 157.678 105.93C156.938 100.414 158.84 67.6387 162.308 64.0163C164.823 61.3895 193.093 61.3314 197.914 61.0232C200.856 60.9752 207.13 60.1328 209.444 62.004C211.492 63.6602 211.553 67.157 209.871 69.0836C207.426 71.8838 175.385 71.9456 169.909 72.4596C168.28 80.8013 167.289 89.7474 167.368 98.2442C182.25 94.3949 202.815 98.0098 208.72 114.282C219.616 144.31 184.043 163.864 156.43 150.604C151.114 147.525 143.041 139.866 153.583 137.45Z" fill="#253017"/>
<path d="M100.743 206.161C95.6868 206.832 88.9937 207.975 84.3616 205.466C78.7671 202.436 79.9214 194.873 79.8659 189.619C79.8425 187.397 78.5938 184.186 81.6071 183.576C85.3933 183.844 82.4723 195.628 84.1978 199.848C86.9452 206.569 97.9652 201.31 101.217 202.738C103.329 203.666 102.717 205.722 100.743 206.161Z" fill="#253017"/>
<path d="M87.1948 251.035C86.213 246.185 81.226 234.908 85.7936 230.779C87.1351 229.566 125.73 230.476 130.405 230.477L236.921 230.479C254.987 230.476 271.397 230.027 289.376 229.307L363.353 226.282C376.887 225.521 390.37 224.062 403.829 222.493C408.097 221.995 412.257 221.221 416.57 221.425C415.181 240.059 414.238 245.094 394.881 246.332L380.473 247.261C303.232 252.21 226.088 254.465 148.697 253.476L113.405 253.072C106.515 253.018 93.276 254.443 87.1948 251.035Z" fill="#ABD27A"/>
<path d="M274.598 264.824C261.74 266.791 231.367 266.793 218.51 266.281C218.936 262.787 221.293 264.033 224.889 263.967L234.927 263.744C246.582 263.415 263.181 262.096 274.598 263.12V264.824Z" fill="#ABD27A"/>
<path d="M95.8989 263.118C99.62 262.92 103.396 263.099 107.122 263.156L184.493 264.088C187.486 264.117 206.947 263.772 208.1 264.428C208.354 265.169 208.2 265.521 208.05 266.279C183.643 267.069 159.006 267.179 134.588 266.848C123.99 266.705 105.288 268.864 95.8989 263.118Z" fill="#ABD27A"/>
<path d="M240.787 184.394C240.728 186.172 241.567 189.847 240.499 191.22C239.816 192.098 238.622 192.181 237.794 191.446C236.462 190.265 236.815 179.166 236.815 177.226C236.814 173.3 235.706 170.379 240.787 170.133C244.344 168.572 251.132 172.054 250.124 177.269C249.561 180.182 247.176 181.638 244.891 183.172C246.607 184.383 250.828 187.722 251.421 189.792C250.655 192.653 248.73 191.489 247.07 190.189C245.084 188.176 242.972 186.19 240.787 184.394ZM241.735 174.145H240.787C240.772 177.839 239.376 182.143 244.271 179.112C248.518 176.511 246.391 173.147 241.735 174.145Z" fill="#253017"/>
<path d="M209.484 189.314C211.722 189.374 214.912 188.954 216.79 189.118C218.012 189.224 218.582 191.146 217.792 191.999C216.299 193.616 207.949 193.446 206.209 191.904C203.775 189.748 204.313 180.159 204.118 176.538C203.915 172.776 205.577 170.305 209.484 170.134C211.8 169.771 220.613 170.542 215.906 174.146C208.572 174.188 207.038 171.148 208.261 180.103C209.639 179.989 214.225 179.755 215.261 180.53C216.348 181.343 215.929 183.214 214.67 183.624C213.26 184.084 209.913 183.731 208.261 183.788C208.248 185.261 207.614 189.192 209.484 189.314Z" fill="#253017"/>
<path d="M224.517 184.987C224.557 186.304 225.33 191.404 223.57 191.886C222.304 192.234 221.126 191.817 220.877 190.434C220.53 188.519 220.085 172.947 220.986 171.721C221.775 170.647 223.491 170.349 224.729 170.133C229.701 169.497 235.913 172.664 233.9 178.408C232.992 180.999 230.731 182.072 228.422 183.172C229.935 185.827 233.358 187.245 234.377 190.19C233.629 192.745 231.896 192.323 230.326 190.795C228.393 188.857 226.48 186.894 224.517 184.987ZM225.253 174.145C223.809 174.467 224.509 178.739 224.517 180.353C225.953 180.142 227.148 179.817 228.422 179.113C232.898 175.86 229.033 174.165 225.253 174.145Z" fill="#253017"/>
<path d="M262.408 191.317C256.674 191.501 251.878 187.001 251.697 181.268C251.516 175.535 256.02 170.742 261.754 170.565C267.482 170.388 272.27 174.886 272.451 180.614C272.631 186.342 268.136 191.132 262.408 191.317ZM261.614 174.612C252.683 176.003 254.59 189.029 262.85 187.29C270.566 185.767 270.042 173.16 261.614 174.612Z" fill="#253017"/>
<path d="M275.492 191.393C274.856 191.084 274.298 190.678 274.038 189.994C273.752 189.239 274.412 172.542 274.686 172.087C275.278 171.105 276.777 170.956 277.789 170.79C286.016 170.161 290.609 176.791 281.77 182.542C283.019 184.019 285.773 186.445 286.627 187.88C287.363 189.118 286.179 192.59 282.76 189.313C281.531 187.924 279.945 186.122 278.509 184.972L277.789 184.393C277.896 187.299 278.691 190.252 275.492 191.393ZM278.193 174.612C278.197 176.434 278.103 178.284 278.193 180.101C279.147 179.532 280.148 178.993 281.057 178.353C284.702 175.616 280.943 174.441 278.193 174.612Z" fill="#253017"/>
</svg>
