<svg width="375" height="298" viewBox="0 0 375 298" fill="none" xmlns="http://www.w3.org/2000/svg">
<path d="M33.2632 245.691C2.26475 243.473 3.54942 217.431 1.92999 192.696C-1.61503 138.549 0.386236 90.2434 2.65743 36.568C3.24034 22.7912 6.4502 10.9957 21.675 6.09832C27.1274 4.34493 32.9288 4.44956 38.5946 4.16401L55.7597 3.44036L215.522 0.0431038C231.948 -0.0556649 334.017 -0.476166 346.282 5.93891C352.396 9.13668 356.385 14.834 358.439 21.3067C360.455 35.3583 361.383 49.7355 362.512 63.8878C366.298 111.373 367.677 159.182 364.158 206.724C363.008 222.261 359.472 236.208 340.607 238.666C329.085 240.167 313.806 240.612 302.069 241.141C296.808 241.377 291.282 241.277 286.069 242.024C264.951 242.433 243.871 244.498 222.737 244.498V247.397L222.756 247.664C224.25 265.919 260.371 293.481 220.532 295.401C200.8 296.352 179.863 297.26 160.128 297.352C125.603 297.512 135.524 286.326 142.232 263.25C143.627 258.454 144.475 253.745 145.414 248.856C145.564 248.097 145.719 247.744 145.465 247.002C144.311 246.345 124.851 246.691 121.857 246.662L44.4862 245.729C40.7607 245.671 36.9843 245.492 33.2632 245.691ZM353.934 203.936C354.167 201.506 354.747 199.232 355.084 196.836C326.109 202.059 285.26 202.494 255.697 203.568L164.541 206.709C153.954 206.985 143.44 207.111 132.843 207.111L89.2694 207.108C73.4374 207.105 57.621 207.101 41.7909 206.753L24.3999 206.362C20.7173 206.282 16.9579 206.031 13.2907 206.413C14.2748 217.098 14.2725 227.651 24.5589 233.589C30.6401 237.002 43.8788 235.575 50.7694 235.629L86.0614 236.034C163.452 237.025 240.597 234.766 317.837 229.81L332.245 228.88C351.602 227.64 352.545 222.598 353.934 203.936ZM211.962 247.397V245.691C200.545 244.666 183.946 245.986 172.291 246.316L162.253 246.54C158.657 246.605 156.3 245.357 155.874 248.856C154.107 258.109 151.932 267.427 148.678 276.275C147.93 278.31 145.205 284.273 145.687 286.14C149.248 289.839 206.106 285.835 213.63 285.765C237.41 285.542 229.977 284.664 221.785 271.485C217.178 264.073 213.83 255.924 211.962 247.397ZM218.133 10.6691C208.548 10.6632 198.9 10.4598 189.32 10.6867L78.8525 13.4248C66.6659 13.8502 54.4628 14.1318 42.2851 14.7166C10.9856 16.2197 14.4063 20.9254 12.8148 46.5974L10.8385 81.6036C9.65079 107.149 9.68457 132.881 10.4154 158.441C10.7676 170.756 12.0463 183.051 12.3916 195.358C21.7558 196.764 32.2199 195.933 41.7304 196.24C48.9696 196.474 56.1132 196.682 63.3515 196.711L147.203 196.836C151.157 196.859 155.08 196.534 159.029 196.435L189.311 195.589C237.445 194.251 285.68 192.727 333.694 188.913C339.555 188.448 349.023 187.972 354.488 186.666L354.653 186.496L354.496 186.309L354.714 186.214L354.749 185.989L354.469 185.923L354.445 185.566L354.814 185.412C357.563 135.114 354.477 84.5256 349.628 34.4557C347.904 16.6558 346.344 14.6355 327.005 13.0708C291.606 10.2075 253.859 10.1576 218.133 10.6691Z" fill="#253017"/>
<path d="M358.439 21.3049C361.916 22.6691 364.873 25.6126 366.354 29.0412C368.386 33.7449 370.36 66.8461 370.998 76.46L372.574 103.866C373.255 116.35 373.43 128.843 373.688 141.337C374.087 160.562 375.637 218.877 370.32 232.158C364.017 247.905 351.377 247.417 337.729 247.408L316.521 247.394C299.227 247.386 281.868 247.743 264.582 247.395H222.737V244.496C243.871 244.496 264.951 242.432 286.069 242.022C291.282 241.275 296.808 241.375 302.069 241.139C313.806 240.61 329.085 240.165 340.607 238.664C359.472 236.206 363.008 222.259 364.158 206.722C367.677 159.18 366.298 111.371 362.512 63.886C361.383 49.7337 360.455 35.3565 358.439 21.3049Z" fill="#508826"/>
<path d="M338.186 39.4743C338.178 36.9789 338.237 34.2524 337.393 31.8736C333.333 20.4279 316.448 27.5911 312.465 25.4842C311.426 24.9352 311.022 23.8767 311.777 22.8997C312.959 21.3686 319.221 21.6769 321.195 21.4412C330.898 20.7349 339.675 22.3972 341.767 33.4206C342.059 34.9644 343.011 43.5708 342.479 44.507C340.179 48.5475 338.317 41.6181 338.186 39.4743Z" fill="#253017"/>
<path d="M38.1073 188.649C33.0511 189.321 26.3579 190.466 21.7259 187.953C16.1313 184.918 17.2857 177.345 17.2302 172.083C17.2067 169.858 15.9581 166.642 18.9714 166.031C22.7576 166.3 19.8365 178.101 21.5621 182.327C24.3095 189.058 35.3295 183.791 38.5815 185.222C40.6932 186.151 40.0816 188.21 38.1073 188.649Z" fill="#253017"/>
<path d="M24.559 233.589C23.5773 228.732 18.5903 217.438 23.1579 213.304C24.4994 212.089 63.0938 213 67.7696 213.001L174.285 213.003C192.352 213 208.761 212.551 226.74 211.83L300.717 208.8C314.251 208.038 327.734 206.577 341.193 205.005C345.461 204.506 349.621 203.732 353.935 203.936C352.545 222.598 351.603 227.64 332.245 228.88L317.837 229.81C240.597 234.766 163.452 237.025 86.0616 236.034L50.7696 235.629C43.879 235.575 30.6403 237.002 24.559 233.589Z" fill="#ABD27A"/>
<path d="M211.962 247.398C199.104 249.369 168.731 249.371 155.874 248.857C156.3 245.358 158.657 246.606 162.253 246.541L172.291 246.317C183.946 245.987 200.545 244.667 211.962 245.692V247.398Z" fill="#ABD27A"/>
<path d="M33.2632 245.689C36.9843 245.491 40.7606 245.67 44.4862 245.727L121.857 246.66C124.85 246.689 144.311 246.343 145.465 247C145.719 247.743 145.564 248.096 145.414 248.855C121.008 249.646 96.37 249.755 71.952 249.425C61.3544 249.281 42.6522 251.443 33.2632 245.689Z" fill="#ABD27A"/>
<path d="M178.152 166.51C178.092 168.291 178.931 171.971 177.863 173.346C177.181 174.225 175.986 174.308 175.158 173.572C173.826 172.389 174.179 161.274 174.179 159.332C174.178 155.4 173.07 152.474 178.152 152.228C181.708 150.665 188.496 154.152 187.488 159.375C186.925 162.292 184.541 163.75 182.255 165.286C183.971 166.499 188.192 169.843 188.785 171.916C188.02 174.781 186.095 173.616 184.434 172.314C182.448 170.298 180.336 168.309 178.152 166.51ZM179.099 156.246H178.152C178.137 159.946 176.741 164.256 181.635 161.221C185.882 158.615 183.756 155.247 179.099 156.246Z" fill="#253017"/>
<path d="M146.848 171.439C149.087 171.498 152.276 171.078 154.154 171.242C155.376 171.349 155.946 173.273 155.157 174.128C153.663 175.746 145.313 175.576 143.573 174.032C141.14 171.873 141.677 162.269 141.482 158.644C141.28 154.875 142.941 152.401 146.848 152.23C149.164 151.866 157.977 152.639 153.27 156.248C145.936 156.29 144.402 153.246 145.626 162.214C147.004 162.1 151.589 161.865 152.626 162.641C153.712 163.455 153.294 165.329 152.035 165.74C150.624 166.201 147.277 165.847 145.626 165.904C145.612 167.379 144.978 171.316 146.848 171.439Z" fill="#253017"/>
<path d="M161.881 167.105C161.921 168.423 162.694 173.531 160.934 174.014C159.668 174.362 158.491 173.945 158.241 172.56C157.895 170.642 157.449 155.047 158.35 153.82C159.14 152.744 160.856 152.445 162.093 152.229C167.066 151.593 173.277 154.764 171.264 160.516C170.356 163.111 168.095 164.186 165.786 165.287C167.3 167.946 170.722 169.367 171.742 172.316C170.994 174.874 169.26 174.451 167.69 172.922C165.758 170.98 163.844 169.014 161.881 167.105ZM162.618 156.247C161.174 156.569 161.874 160.848 161.881 162.465C163.317 162.253 164.512 161.927 165.786 161.222C170.262 157.965 166.397 156.267 162.618 156.247Z" fill="#253017"/>
<path d="M199.772 173.444C194.039 173.629 189.242 169.122 189.061 163.38C188.88 157.639 193.384 152.839 199.118 152.662C204.846 152.485 209.634 156.989 209.815 162.725C209.995 168.461 205.5 173.259 199.772 173.444ZM198.979 156.714C190.047 158.107 191.955 171.152 200.214 169.411C207.93 167.885 207.406 155.261 198.979 156.714Z" fill="#253017"/>
<path d="M212.857 173.519C212.22 173.209 211.662 172.803 211.403 172.118C211.117 171.362 211.776 154.64 212.051 154.184C212.642 153.201 214.141 153.052 215.153 152.886C223.38 152.256 227.973 158.895 219.135 164.655C220.383 166.134 223.137 168.564 223.991 170.001C224.728 171.24 223.543 174.718 220.124 171.435C218.895 170.045 217.309 168.24 215.873 167.088L215.153 166.509C215.26 169.419 216.055 172.376 212.857 173.519ZM215.557 156.713C215.561 158.538 215.467 160.39 215.557 162.21C216.511 161.64 217.513 161.101 218.421 160.46C222.067 157.718 218.307 156.542 215.557 156.713Z" fill="#253017"/>
<path d="M127.025 116.978C126.826 113.034 127.284 109.038 126.961 105.12C125.085 103.817 100.429 110.056 92.2313 105.625C83.1132 100.696 92.0238 90.8335 95.368 85.2454L112.468 56.9046C116.342 50.4947 121.023 41.4003 128.799 39.4818C138.734 38.3128 136.908 48.6817 136.82 55.095C136.67 65.9446 135.085 83.3278 136.813 93.7404C139.464 93.7371 149.388 93.3571 147.239 98.5873C146.353 100.746 139.094 102.185 136.813 102.957C137.062 109.758 140.103 131.556 134.288 136.407C132.11 138.224 129.359 136.534 128.014 134.524C125.241 130.379 126.061 121.734 127.025 116.978ZM127.771 47.901C122.786 51.7898 119.776 59.1108 116.811 64.5224C115.718 66.5192 98.0306 98.3548 98.0298 98.3606C97.9705 98.7241 98.341 98.8 98.6522 98.8725C108.38 98.5263 118.229 97.02 127.771 95.0966C126.926 87.4747 129.429 51.0874 128.042 48.0403L127.677 47.9719L127.847 47.9422L127.771 47.901Z" fill="#253017"/>
<path d="M258.054 103.884C248.443 105.249 234.346 110.45 225.814 105.865C213.503 99.2488 230.91 79.3989 235.65 72.1323C240.448 64.7767 253.321 41.7296 261.784 39.4846C263.663 39.5984 265.832 40.1335 267.29 41.3833C273.678 46.8642 267.559 81.9892 268.264 93.7432C270.6 92.9954 275.589 92.4414 276.855 95.2981C279.426 101.1 271.377 101.378 267.923 102.807L267.56 102.96C267.459 109.224 268.073 131.66 264.528 134.998C261.282 138.053 257.399 134.41 256.728 131.037C255.903 126.881 256.723 119.197 257.138 114.779C257.273 111.147 257.729 107.505 258.054 103.884ZM260.506 47.9038C253.741 53.7746 229.037 96.5991 230.892 98.8374L231.203 98.8753C238.265 99.6379 251.229 96.0764 259.097 95.0994C259.746 88.8939 262.022 49.6359 260.506 47.9038Z" fill="#253017"/>
<path d="M188.319 133.345C172.136 138.076 161.175 126.159 158.362 111.162C155.718 97.0641 158.428 61.1187 166.559 49.3441C169.827 44.6102 174.644 42.3678 180.17 41.3916C193.18 40.0124 204.041 47.842 208.258 60.061C213.084 74.0451 212.546 104.803 206.055 118.106C202.509 125.374 195.891 130.746 188.319 133.345ZM182.817 49.9081C168.382 51.8463 167.307 88.6862 167.217 99.347C167.117 111.312 169.963 129.492 186.106 124.059C206.038 116.35 203.944 74.7054 198.11 59.7411C195.825 53.8802 189.348 48.9699 182.817 49.9081Z" fill="#253017"/>
</svg>
