<svg xmlns="http://www.w3.org/2000/svg" width="48" height="48" fill="none" viewBox="0 0 200 200">
    <path fill="#253017" d="M 50 43.151 C 33.775 55.838, 20.356 66.601, 20.180 67.070 C 19.769 68.163, 106.995 180, 108.259 180 C 109.393 180, 168.357 134.166, 168.824 132.921 C 169.002 132.447, 164.143 125.646, 158.026 117.810 L 146.905 103.561 150.257 102.401 C 181.973 91.420, 190.438 52.698, 165.958 30.581 C 148.091 14.439, 118.616 17.491, 104.762 36.917 C 102.418 40.203, 100.275 42.901, 100 42.913 C 99.725 42.924, 95.495 37.773, 90.600 31.467 C 85.706 25.160, 81.206 20.019, 80.600 20.042 C 79.995 20.066, 66.225 30.465, 50 43.151 M 129.618 25.050 C 123.539 26.575, 114.299 31.927, 110.517 36.113 C 91.271 57.416, 100.801 90.600, 128.448 98.547 C 145.718 103.512, 164.794 94.342, 172.820 77.218 C 175.139 72.271, 175.500 70.216, 175.500 61.979 C 175.500 53.244, 175.230 51.909, 172.226 45.807 C 168.076 37.379, 160.211 29.971, 152.248 26.992 C 145.647 24.522, 135.270 23.631, 129.618 25.050 M 53.075 46.144 C 38.138 57.797, 26.048 67.853, 26.209 68.491 C 26.369 69.129, 33.025 78.009, 41 88.225 C 52.951 103.534, 55.796 106.642, 57.184 105.900 C 61.408 103.643, 63.471 105.717, 60.389 109.122 C 58.882 110.787, 59.763 112.169, 74.075 130.596 L 89.371 150.291 90.834 146.396 C 92.727 141.354, 92.924 124.957, 91.164 118.908 C 90.022 114.981, 89.189 114.004, 85.414 112.171 C 82.986 110.991, 81 109.556, 81 108.982 C 81 107.345, 83.415 106.827, 86.169 107.874 C 88.616 108.804, 88.687 108.708, 88.856 104.221 C 89.067 98.643, 92.531 90.875, 97.151 85.622 L 100.561 81.743 98.163 74.622 C 96.143 68.622, 95.861 66.319, 96.371 60 C 96.704 55.875, 97.221 51.375, 97.521 50 C 97.964 47.965, 96.408 45.404, 89.149 36.228 L 80.232 24.957 53.075 46.144 M 129 27.364 C 121.929 29.426, 117.951 31.873, 112.364 37.596 C 105.542 44.582, 102.673 51.808, 102.673 62 C 102.673 76.311, 109.889 87.866, 122.791 94.218 C 128.737 97.145, 130.366 97.497, 137.976 97.498 C 145.221 97.500, 147.400 97.080, 152.500 94.698 C 180.822 81.470, 180.827 42.340, 152.509 29.375 C 145.916 26.357, 135.506 25.467, 129 27.364 M 125.500 33.441 C 117.318 37.403, 117.211 37.531, 119.810 40.297 C 121.701 42.310, 121.841 42.887, 120.675 43.855 C 119.593 44.752, 118.706 44.557, 116.699 42.978 L 114.116 40.946 111.620 45.223 C 106.210 54.492, 105.642 58.710, 109.741 59.184 C 113.788 59.651, 114.027 62.845, 110.075 63.635 C 107.575 64.135, 107.002 64.741, 107.010 66.875 C 107.020 69.595, 110.644 78.012, 113.300 81.487 C 114.776 83.417, 114.877 83.421, 116.847 81.639 C 120.245 78.564, 122.565 81.613, 119.448 85.058 C 118.023 86.632, 118.173 86.944, 121.279 88.864 C 123.140 90.014, 127.101 91.583, 130.081 92.351 L 135.500 93.748 136.008 91.136 C 136.701 87.568, 139.736 87.101, 140.573 90.434 C 141.043 92.306, 141.872 93, 143.641 93 C 146.626 93, 152.123 90.761, 156.115 87.918 C 158.865 85.960, 158.984 85.640, 157.557 84.063 C 154.502 80.688, 156.727 77.538, 160.044 80.540 C 161.540 81.894, 162.273 82.018, 163.372 81.107 C 165.078 79.690, 168.510 71.727, 169.345 67.250 C 169.888 64.333, 169.709 64, 167.597 64 C 164.955 64, 162.489 61.635, 163.473 60.044 C 163.828 59.470, 165.394 59, 166.953 59 C 169.770 59, 169.782 58.974, 168.837 54.750 C 168.314 52.413, 166.761 48.575, 165.385 46.223 L 162.884 41.946 160.301 43.978 C 158.294 45.557, 157.407 45.752, 156.325 44.855 C 155.159 43.887, 155.304 43.304, 157.217 41.261 L 159.500 38.823 156.500 36.422 C 153.440 33.973, 146.008 31, 142.947 31 C 141.852 31, 141.032 32.091, 140.635 34.075 C 139.845 38.027, 136.651 37.788, 136.184 33.741 C 135.773 30.182, 132.425 30.088, 125.500 33.441 M 141.091 52.391 L 132.682 56.682 128.391 65.091 C 123.870 73.952, 123.101 77, 125.387 77 C 126.150 77, 130.626 74.951, 135.334 72.447 L 143.893 67.893 148.447 59.334 C 150.951 54.626, 153 50.150, 153 49.387 C 153 47.101, 149.952 47.870, 141.091 52.391 M 61.001 53.070 C 49.762 57.792, 47.647 71.476, 56.946 79.301 C 62.583 84.044, 81.989 90.445, 83.469 88.049 C 83.854 87.428, 83.660 82.100, 83.040 76.210 C 81.799 64.436, 79.327 57.929, 74.864 54.692 C 71.749 52.432, 64.529 51.588, 61.001 53.070 M 140.098 57.393 C 137.024 59.001, 135.001 61.024, 133.393 64.098 C 132.127 66.519, 131.070 68.845, 131.045 69.267 C 131.020 69.689, 133.245 68.896, 135.989 67.506 C 139.937 65.505, 141.505 63.937, 143.506 59.989 C 144.896 57.245, 145.689 55.020, 145.267 55.045 C 144.845 55.070, 142.519 56.127, 140.098 57.393 M 63.500 56.694 C 60.254 57.506, 56.071 62.104, 55.419 65.578 C 54.501 70.474, 57.237 75.264, 62.434 77.860 C 66.308 79.795, 77.520 84, 78.805 84 C 79.713 84, 78.112 68.499, 76.799 64.574 C 74.875 58.822, 68.974 55.325, 63.500 56.694 M 64.200 65.200 C 61.897 67.503, 63.503 72, 66.629 72 C 68.032 72, 71 69.284, 71 68 C 71 66.716, 68.032 64, 66.629 64 C 65.953 64, 64.860 64.540, 64.200 65.200 M 99.434 89.250 C 92.721 97.203, 91.529 105.130, 95.122 117.934 C 97.836 127.608, 97.448 141.960, 94.278 149.113 L 92.234 153.725 94.839 157.113 C 96.272 158.976, 100 163.767, 103.123 167.759 L 108.800 175.018 135.900 153.876 C 150.805 142.248, 163 132.320, 163 131.814 C 163 131.083, 154.517 119.715, 150.918 115.623 C 150.493 115.140, 148.550 115.733, 146.591 116.943 C 144.636 118.152, 142.578 118.857, 142.018 118.511 C 140.843 117.785, 140.633 115.011, 141.750 114.978 C 142.162 114.966, 143.600 114.110, 144.944 113.077 L 147.389 111.198 144.746 107.734 C 142.233 104.438, 141.743 104.247, 134.690 103.794 C 124.774 103.158, 115.881 99.011, 108.411 91.541 C 105.363 88.494, 102.714 86, 102.524 86 C 102.333 86, 100.943 87.463, 99.434 89.250 M 66.750 103.571 C 64.840 105.512, 66.322 106.857, 71.093 107.513 C 76.363 108.238, 79.424 107.024, 77.410 105.010 C 76.118 103.718, 67.721 102.585, 66.750 103.571 M 96 115.480 C 96 117.029, 102.805 121, 105.460 121 C 108.415 121, 106.969 118.025, 103.040 116.020 C 98.347 113.626, 96 113.446, 96 115.480 M 131.082 119.862 C 123.248 122.779, 125.242 126.419, 133.217 123.761 C 136.184 122.772, 137.500 121.770, 137.500 120.500 C 137.500 118.036, 136.306 117.917, 131.082 119.862 M 110.476 121.039 C 109.446 122.706, 110.950 123.762, 115.946 124.880 C 120.734 125.952, 122 125.663, 122 123.500 C 122 121.682, 121.364 121.380, 115.839 120.579 C 112.762 120.134, 110.939 120.290, 110.476 121.039"
          stroke="none" fill-rule="evenodd"/>
</svg>