<svg width="57" height="49" viewBox="0 0 57 49" fill="none" xmlns="http://www.w3.org/2000/svg">
<path fill-rule="evenodd" clip-rule="evenodd" d="M18.1979 14.6271C18.1979 10.6896 21.2591 7.65625 24.85 7.65625C26.7009 7.65625 28.331 8.63625 29.5 9.905C30.6689 8.63625 32.2977 7.65625 34.15 7.65625C37.7408 7.65625 40.802 10.6896 40.802 14.6271C40.802 17.325 39.7829 19.6963 38.3711 21.7029C36.9632 23.7038 35.1187 25.4027 33.3543 26.7837C32.6788 27.3117 31.998 27.7973 31.3729 28.156C30.7878 28.4929 30.1135 28.8021 29.5 28.8021C28.8864 28.8021 28.2135 28.4929 27.627 28.156C26.9416 27.747 26.2802 27.2886 25.6469 26.7837C23.8812 25.4027 22.038 23.7038 20.6288 21.7029C19.217 19.6963 18.1979 17.325 18.1979 14.6271ZM24.85 9.84375C22.1633 9.84375 20.1354 12.075 20.1354 14.6271C20.1354 16.6731 20.9052 18.5792 22.1452 20.3408C23.3878 22.1054 25.0605 23.6644 26.75 24.9856C27.3894 25.4858 27.99 25.9102 28.5067 26.2077C29.0595 26.5256 29.3798 26.6146 29.5 26.6146C29.6201 26.6146 29.9404 26.5256 30.4945 26.2062C31.1035 25.8439 31.6903 25.4361 32.2512 24.9856C33.9394 23.6644 35.6121 22.1069 36.8547 20.3408C38.0947 18.5792 38.8645 16.6731 38.8645 14.6271C38.8645 12.075 36.8366 9.84375 34.15 9.84375C32.6077 9.84375 31.1662 10.8835 30.2685 12.2048C30.178 12.3379 30.0617 12.4457 29.9284 12.5199C29.7951 12.5941 29.6485 12.6327 29.5 12.6327C29.3514 12.6327 29.2048 12.5941 29.0715 12.5199C28.9382 12.4457 28.8219 12.3379 28.7314 12.2048C27.8337 10.8835 26.3935 9.84375 24.85 9.84375Z" fill="#2975CC"/>
<path d="M7.45078 45H6.32285V40.0586C6.32285 39.9609 6.32448 39.8503 6.32773 39.7266C6.33424 39.5996 6.34075 39.4873 6.34727 39.3896H6.30332C6.261 39.4743 6.21055 39.5654 6.15195 39.6631C6.09661 39.7607 6.03639 39.86 5.97129 39.9609L2.77305 45H1.59141V37.8906H2.71445V42.7637C2.71445 42.8613 2.7112 42.9899 2.70469 43.1494C2.70143 43.3057 2.69818 43.4326 2.69492 43.5303H2.73887C2.77793 43.4489 2.82839 43.3512 2.89023 43.2373C2.95534 43.1201 3.01881 43.0111 3.08066 42.9102L6.26914 37.8906H7.45078V45ZM10.9943 45.1465C10.2163 45.1465 9.63366 44.9642 9.24629 44.5996C8.86217 44.2318 8.67012 43.8118 8.67012 43.3398V43.3154H9.73457V43.3398C9.73457 43.5905 9.8306 43.8151 10.0227 44.0137C10.218 44.209 10.5402 44.3066 10.9895 44.3066C11.3866 44.3066 11.6844 44.2318 11.883 44.082C12.0848 43.9323 12.1857 43.724 12.1857 43.457C12.1857 43.2324 12.106 43.055 11.9465 42.9248C11.7902 42.7913 11.5266 42.7246 11.1555 42.7246H10.2766V41.9189H11.1164C11.4322 41.9189 11.66 41.8555 11.8 41.7285C11.9432 41.6016 12.0148 41.4242 12.0148 41.1963C12.0148 40.9391 11.9335 40.7454 11.7707 40.6152C11.6112 40.485 11.3638 40.4199 11.0285 40.4199C10.6216 40.4199 10.3221 40.516 10.1301 40.708C9.93802 40.9001 9.84199 41.1279 9.84199 41.3916V41.416H8.78242V41.3916C8.78242 40.8968 8.97448 40.472 9.35859 40.1172C9.74271 39.7591 10.3042 39.5801 11.0432 39.5801C11.7007 39.5801 12.2102 39.7119 12.5715 39.9756C12.9361 40.236 13.1184 40.6152 13.1184 41.1133C13.1184 41.4062 13.0272 41.6553 12.8449 41.8604C12.6659 42.0654 12.4201 42.2038 12.1076 42.2754V42.29C12.4787 42.3454 12.7668 42.4772 12.9719 42.6855C13.177 42.8906 13.2795 43.1543 13.2795 43.4766C13.2795 44.0039 13.0712 44.4141 12.6545 44.707C12.2411 45 11.6877 45.1465 10.9943 45.1465ZM15.3436 42.4219V42.5781C15.3436 43.0632 15.4705 43.4684 15.7244 43.7939C15.9783 44.1195 16.3559 44.2822 16.8572 44.2822C17.3585 44.2822 17.7361 44.1195 17.99 43.7939C18.2439 43.4684 18.3709 43.0632 18.3709 42.5781V42.4219C18.3709 41.9401 18.2439 41.5381 17.99 41.2158C17.7361 40.8903 17.3585 40.7275 16.8572 40.7275C16.3559 40.7275 15.9783 40.8903 15.7244 41.2158C15.4705 41.5381 15.3436 41.9401 15.3436 42.4219ZM17.077 39.8633C17.7866 39.8633 18.3644 40.1025 18.8104 40.5811C19.2596 41.0563 19.4842 41.6699 19.4842 42.4219V42.5781C19.4842 43.3301 19.2449 43.9469 18.7664 44.4287C18.2911 44.9072 17.6548 45.1465 16.8572 45.1465C16.0434 45.1465 15.4021 44.9023 14.9334 44.4141C14.4646 43.9258 14.2303 43.1738 14.2303 42.1582V41.875C14.2303 40.7129 14.437 39.8063 14.8504 39.1553C15.2671 38.5042 16.0027 38.0973 17.0574 37.9346C17.6466 37.8434 17.9884 37.7686 18.0828 37.71C18.1772 37.6514 18.2326 37.5814 18.2488 37.5H19.2156C19.1831 37.8971 19.0415 38.1982 18.7908 38.4033C18.5402 38.6084 18.0372 38.7598 17.282 38.8574C16.452 38.9681 15.8937 39.2057 15.6072 39.5703C15.3208 39.9316 15.1531 40.4053 15.1043 40.9912H15.158C15.324 40.6299 15.5698 40.3516 15.8953 40.1562C16.2241 39.9609 16.618 39.8633 17.077 39.8633ZM20.7426 47.0312V39.7266H21.7387L21.7826 40.3906H21.807C21.9405 40.179 22.1488 40 22.432 39.8535C22.7185 39.7038 23.0505 39.6289 23.4281 39.6289C24.1215 39.6289 24.6765 39.8779 25.0932 40.376C25.5098 40.874 25.7182 41.5104 25.7182 42.2852V42.4414C25.7182 43.2129 25.5098 43.8493 25.0932 44.3506C24.6765 44.8486 24.1231 45.0977 23.433 45.0977C23.0587 45.0977 22.7364 45.0358 22.4662 44.9121C22.196 44.7852 21.9828 44.6143 21.8266 44.3994V47.0312H20.7426ZM21.8266 43.3691C21.9307 43.5938 22.0984 43.7939 22.3295 43.9697C22.5639 44.1455 22.8454 44.2334 23.1742 44.2334C23.6658 44.2334 24.0255 44.0641 24.2533 43.7256C24.4844 43.3838 24.6 42.9574 24.6 42.4463V42.2754C24.6 41.7676 24.4844 41.3444 24.2533 41.0059C24.0255 40.6641 23.6658 40.4932 23.1742 40.4932C22.8422 40.4932 22.5606 40.5811 22.3295 40.7568C22.0984 40.9326 21.9307 41.1328 21.8266 41.3574V43.3691ZM26.7031 43.4473C26.7031 42.9036 26.9277 42.4821 27.377 42.1826C27.8262 41.8831 28.3958 41.7334 29.0859 41.7334H30.2773V41.3477C30.2773 41.0677 30.196 40.8398 30.0332 40.6641C29.8704 40.485 29.5905 40.3955 29.1934 40.3955C28.7995 40.3955 28.5179 40.4736 28.3486 40.6299C28.1794 40.7861 28.0947 40.9668 28.0947 41.1719V41.2061H27.0059V41.1719C27.0059 40.7422 27.2061 40.3695 27.6064 40.0537C28.0101 39.738 28.5505 39.5801 29.2275 39.5801C29.9014 39.5801 30.4255 39.7282 30.7998 40.0244C31.1774 40.3174 31.3662 40.7585 31.3662 41.3477V43.8281C31.3662 44.0397 31.3825 44.2399 31.415 44.4287C31.4508 44.6175 31.498 44.7819 31.5566 44.9219V45H30.502C30.4531 44.9186 30.4108 44.8112 30.375 44.6777C30.3392 44.5443 30.3148 44.4141 30.3018 44.2871C30.1781 44.4987 29.9714 44.6875 29.6816 44.8535C29.3952 45.0163 29.0273 45.0977 28.5781 45.0977C28.0573 45.0977 27.6146 44.9577 27.25 44.6777C26.8854 44.3945 26.7031 43.9844 26.7031 43.4473ZM27.792 43.3936C27.792 43.6702 27.8766 43.8883 28.0459 44.0479C28.2184 44.2041 28.4837 44.2822 28.8418 44.2822C29.2096 44.2822 29.54 44.1634 29.833 43.9258C30.1292 43.6882 30.2773 43.4342 30.2773 43.1641V42.4707H29.1982C28.736 42.4707 28.3861 42.5537 28.1484 42.7197C27.9108 42.8857 27.792 43.1104 27.792 43.3936ZM32.9469 39.7266H34.0309V41.9043H36.3697V39.7266H37.4537V45H36.3697V42.7393H34.0309V45H32.9469V39.7266ZM39.0344 39.7266H40.1184V41.9043H42.4572V39.7266H43.5412V45H42.4572V42.7393H40.1184V45H39.0344V39.7266ZM44.8143 42.4414V42.2852C44.8143 41.4844 45.0535 40.8333 45.532 40.332C46.0105 39.8307 46.6469 39.5801 47.4412 39.5801C48.2355 39.5801 48.8719 39.8307 49.3504 40.332C49.8289 40.8333 50.0682 41.4844 50.0682 42.2852V42.4414C50.0682 43.2389 49.8289 43.89 49.3504 44.3945C48.8719 44.8958 48.2355 45.1465 47.4412 45.1465C46.6469 45.1465 46.0105 44.8958 45.532 44.3945C45.0535 43.89 44.8143 43.2389 44.8143 42.4414ZM45.9324 42.2754V42.4463C45.9324 42.9704 46.0594 43.4082 46.3133 43.7598C46.5672 44.1081 46.9432 44.2822 47.4412 44.2822C47.9425 44.2822 48.3201 44.1081 48.574 43.7598C48.8279 43.4082 48.9549 42.9704 48.9549 42.4463V42.2754C48.9549 41.7546 48.8263 41.32 48.5691 40.9717C48.3152 40.6201 47.9393 40.4443 47.4412 40.4443C46.9432 40.4443 46.5672 40.6201 46.3133 40.9717C46.0594 41.32 45.9324 41.7546 45.9324 42.2754ZM51.0434 42.4414V42.2852C51.0434 41.4876 51.2745 40.8382 51.7367 40.3369C52.199 39.8324 52.8061 39.5801 53.558 39.5801C54.3165 39.5801 54.9008 39.8161 55.3109 40.2881C55.7243 40.7568 55.9311 41.3932 55.9311 42.1973V42.627H51.7465V41.8213H54.8373V41.7773C54.8373 41.4062 54.7364 41.0889 54.5346 40.8252C54.3327 40.5583 54.0089 40.4248 53.5629 40.4248C53.0974 40.4248 52.7426 40.6022 52.4984 40.957C52.2576 41.3118 52.1371 41.7513 52.1371 42.2754V42.4463C52.1371 42.9704 52.2657 43.4098 52.5229 43.7646C52.78 44.1195 53.1739 44.2969 53.7045 44.2969C54.0365 44.2969 54.323 44.2253 54.5639 44.082C54.8048 43.9388 55.0001 43.7712 55.1498 43.5791L55.8627 44.1357C55.6934 44.3929 55.4232 44.6257 55.0521 44.834C54.6811 45.0423 54.2318 45.1465 53.7045 45.1465C52.8484 45.1465 52.1908 44.8958 51.7318 44.3945C51.2729 43.89 51.0434 43.2389 51.0434 42.4414Z" fill="#2975CC"/>
</svg>
