<svg width="23" height="22" viewBox="0 0 23 22" fill="none" xmlns="http://www.w3.org/2000/svg">
<path fill-rule="evenodd" clip-rule="evenodd" d="M0 6.97083C0 3.03333 3.06125 0 6.65208 0C8.50304 0 10.1331 0.98 11.3021 2.24875C12.471 0.98 14.0998 0 15.9521 0C19.5429 0 22.6042 3.03333 22.6042 6.97083C22.6042 9.66875 21.585 12.04 20.1733 14.0467C18.7653 16.0475 16.9208 17.7465 15.1564 19.1275C14.4809 19.6554 13.8002 20.141 13.175 20.4998C12.5899 20.8367 11.9156 21.1458 11.3021 21.1458C10.6885 21.1458 10.0156 20.8367 9.42917 20.4998C8.74375 20.0908 8.08235 19.6324 7.44904 19.1275C5.68333 17.7465 3.84013 16.0475 2.43092 14.0467C1.01912 12.04 0 9.66875 0 6.97083Z" fill="#2975CC"/>
</svg>
