<svg width="39" height="45" viewBox="0 0 39 45" fill="none" xmlns="http://www.w3.org/2000/svg">
<path fill-rule="evenodd" clip-rule="evenodd" d="M5.28125 18.4018C5.28125 13.4482 9.1325 9.63208 13.65 9.63208C15.9786 9.63208 18.0294 10.865 19.5 12.4612C20.9706 10.865 23.0198 9.63208 25.35 9.63208C29.8675 9.63208 33.7188 13.4482 33.7188 18.4018C33.7188 21.796 32.4366 24.7792 30.6605 27.3037C28.8892 29.8209 26.5688 31.9583 24.349 33.6957C23.4991 34.3599 22.6427 34.9708 21.8562 35.4221C21.1201 35.8459 20.2719 36.2349 19.5 36.2349C18.7281 36.2349 17.8815 35.8459 17.1438 35.4221C16.2815 34.9075 15.4494 34.3309 14.6526 33.6957C12.4313 31.9583 10.1124 29.8209 8.3395 27.3037C6.56337 24.7792 5.28125 21.796 5.28125 18.4018ZM13.65 12.3841C10.27 12.3841 7.71875 15.1912 7.71875 18.4018C7.71875 20.9759 8.68725 23.3738 10.2473 25.5901C11.8105 27.8101 13.9149 29.7713 16.0404 31.4335C16.8448 32.0628 17.6004 32.5967 18.2504 32.971C18.9459 33.371 19.3489 33.4829 19.5 33.4829C19.6511 33.4829 20.0541 33.371 20.7513 32.9692C21.5173 32.5133 22.2556 32.0003 22.9613 31.4335C25.0851 29.7713 27.1895 27.8119 28.7528 25.5901C30.3128 23.3738 31.2812 20.9759 31.2812 18.4018C31.2812 15.1912 28.73 12.3841 25.35 12.3841C23.4098 12.3841 21.5963 13.6922 20.4669 15.3544C20.3531 15.5219 20.2067 15.6575 20.039 15.7509C19.8714 15.8442 19.6869 15.8928 19.5 15.8928C19.3131 15.8928 19.1286 15.8442 18.961 15.7509C18.7933 15.6575 18.6469 15.5219 18.5331 15.3544C17.4037 13.6922 15.5919 12.3841 13.65 12.3841Z" fill="#2688EB"/>
</svg>
