<svg width="57" height="48" viewBox="0 0 57 48" fill="none" xmlns="http://www.w3.org/2000/svg">
<path d="M30.1295 2.69099L39.0662 11.1809C39.6624 11.7472 40 12.5335 40 13.3559V21.9972C40 23.3779 38.8807 24.4972 37.5 24.4972H31.5C30.9477 24.4972 30.5 24.0495 30.5 23.4972V17.9971C30.5 17.1687 29.8284 16.4971 29 16.4971C28.1716 16.4971 27.5 17.1687 27.5 17.9971V23.4972C27.5 24.0495 27.0523 24.4972 26.5 24.4972H20.5C19.1193 24.4972 18 23.3779 18 21.9972V13.3559C18 12.5335 18.3376 11.7472 18.9338 11.1809L27.8705 2.69099C28.5034 2.08966 29.4966 2.08966 30.1295 2.69099ZM29 4.37654L20.3113 12.6309C20.1125 12.8196 20 13.0817 20 13.3559V21.9972C20 22.2734 20.2239 22.4972 20.5 22.4972H25.5V17.9971C25.5 16.0641 27.067 14.4971 29 14.4971C30.933 14.4971 32.5 16.0641 32.5 17.9971V22.4972H37.5C37.7761 22.4972 38 22.2734 38 21.9972V13.3559C38 13.0817 37.8875 12.8196 37.6887 12.6309L29 4.37654Z" fill="#99A2AD"/>
<path d="M8.71406 44V36.8906H13.3186V37.7793H9.83711V44H8.71406ZM15.866 39.5615L15.7781 41.6172C15.7423 42.4798 15.6202 43.1097 15.4119 43.5068C15.2036 43.904 14.839 44.1025 14.3182 44.1025C14.201 44.1025 14.0984 44.0944 14.0105 44.0781C13.9227 44.0651 13.8445 44.0439 13.7762 44.0146V43.0771C13.8348 43.0999 13.8934 43.1162 13.952 43.126C14.0138 43.1357 14.0805 43.1406 14.1521 43.1406C14.393 43.1406 14.5574 43.0251 14.6453 42.7939C14.7332 42.5596 14.7902 42.1234 14.8162 41.4854L14.9334 38.7266H18.8445V44H17.7557V39.5615H15.866ZM20.1469 42.4473C20.1469 41.9036 20.3715 41.4821 20.8207 41.1826C21.2699 40.8831 21.8396 40.7334 22.5297 40.7334H23.7211V40.3477C23.7211 40.0677 23.6397 39.8398 23.477 39.6641C23.3142 39.485 23.0342 39.3955 22.6371 39.3955C22.2432 39.3955 21.9617 39.4736 21.7924 39.6299C21.6231 39.7861 21.5385 39.9668 21.5385 40.1719V40.2061H20.4496V40.1719C20.4496 39.7422 20.6498 39.3695 21.0502 39.0537C21.4538 38.738 21.9942 38.5801 22.6713 38.5801C23.3451 38.5801 23.8692 38.7282 24.2436 39.0244C24.6212 39.3174 24.81 39.7585 24.81 40.3477V42.8281C24.81 43.0397 24.8262 43.2399 24.8588 43.4287C24.8946 43.6175 24.9418 43.7819 25.0004 43.9219V44H23.9457C23.8969 43.9186 23.8546 43.8112 23.8187 43.6777C23.7829 43.5443 23.7585 43.4141 23.7455 43.2871C23.6218 43.4987 23.4151 43.6875 23.1254 43.8535C22.8389 44.0163 22.4711 44.0977 22.0219 44.0977C21.501 44.0977 21.0583 43.9577 20.6937 43.6777C20.3292 43.3945 20.1469 42.9844 20.1469 42.4473ZM21.2357 42.3936C21.2357 42.6702 21.3204 42.8883 21.4896 43.0479C21.6622 43.2041 21.9275 43.2822 22.2855 43.2822C22.6534 43.2822 22.9838 43.1634 23.2768 42.9258C23.573 42.6882 23.7211 42.4342 23.7211 42.1641V41.4707H22.642C22.1798 41.4707 21.8298 41.5537 21.5922 41.7197C21.3546 41.8857 21.2357 42.1104 21.2357 42.3936ZM26.3906 44V38.7266H28.7881C29.3968 38.7266 29.8672 38.8438 30.1992 39.0781C30.5345 39.3092 30.7021 39.6527 30.7021 40.1084C30.7021 40.4144 30.6143 40.6683 30.4385 40.8701C30.2627 41.0687 30.0234 41.2021 29.7207 41.2705V41.2852C30.082 41.3438 30.3652 41.4772 30.5703 41.6855C30.7786 41.8906 30.8828 42.1576 30.8828 42.4863C30.8828 42.9551 30.7087 43.3245 30.3604 43.5947C30.0153 43.8649 29.5449 44 28.9492 44H26.3906ZM27.4697 40.9238H28.7051C29.0241 40.9238 29.2536 40.8604 29.3936 40.7334C29.5335 40.6064 29.6035 40.429 29.6035 40.2012C29.6035 39.9798 29.5335 39.8154 29.3936 39.708C29.2536 39.6006 29.0241 39.5436 28.7051 39.5371H27.4697V40.9238ZM27.4697 43.1895H28.8564C29.182 43.1895 29.4196 43.1243 29.5693 42.9941C29.7191 42.8639 29.7939 42.6833 29.7939 42.4521C29.7939 42.2243 29.7191 42.0452 29.5693 41.915C29.4229 41.7848 29.1852 41.7197 28.8564 41.7197H27.4697V43.1895ZM32.1656 38.7266H33.2496V40.9043H35.5885V38.7266H36.6725V44H35.5885V41.7393H33.2496V44H32.1656V38.7266ZM37.9699 42.4473C37.9699 41.9036 38.1945 41.4821 38.6437 41.1826C39.093 40.8831 39.6626 40.7334 40.3527 40.7334H41.5441V40.3477C41.5441 40.0677 41.4628 39.8398 41.3 39.6641C41.1372 39.485 40.8573 39.3955 40.4602 39.3955C40.0663 39.3955 39.7847 39.4736 39.6154 39.6299C39.4462 39.7861 39.3615 39.9668 39.3615 40.1719V40.2061H38.2727V40.1719C38.2727 39.7422 38.4729 39.3695 38.8732 39.0537C39.2769 38.738 39.8173 38.5801 40.4943 38.5801C41.1682 38.5801 41.6923 38.7282 42.0666 39.0244C42.4442 39.3174 42.633 39.7585 42.633 40.3477V42.8281C42.633 43.0397 42.6493 43.2399 42.6818 43.4287C42.7176 43.6175 42.7648 43.7819 42.8234 43.9219V44H41.7687C41.7199 43.9186 41.6776 43.8112 41.6418 43.6777C41.606 43.5443 41.5816 43.4141 41.5686 43.2871C41.4449 43.4987 41.2382 43.6875 40.9484 43.8535C40.662 44.0163 40.2941 44.0977 39.8449 44.0977C39.3241 44.0977 38.8814 43.9577 38.5168 43.6777C38.1522 43.3945 37.9699 42.9844 37.9699 42.4473ZM39.0588 42.3936C39.0588 42.6702 39.1434 42.8883 39.3127 43.0479C39.4852 43.2041 39.7505 43.2822 40.1086 43.2822C40.4764 43.2822 40.8068 43.1634 41.0998 42.9258C41.396 42.6882 41.5441 42.4342 41.5441 42.1641V41.4707H40.465C40.0028 41.4707 39.6529 41.5537 39.4152 41.7197C39.1776 41.8857 39.0588 42.1104 39.0588 42.3936ZM45.0535 44H43.8523L45.3465 41.793L46.4598 41.876L45.0535 44ZM47.3094 44V42.1348H46.1473L46.0203 42.0811C45.3953 42.0745 44.9135 41.9248 44.575 41.6318C44.2397 41.3356 44.0721 40.9368 44.0721 40.4355C44.0721 39.918 44.2462 39.5046 44.5945 39.1953C44.9461 38.8828 45.4458 38.7266 46.0936 38.7266H48.3934V44H47.3094ZM46.1619 41.3145H47.3094V39.5469H46.1619C45.7973 39.5469 45.5402 39.6315 45.3904 39.8008C45.2439 39.9701 45.1707 40.1833 45.1707 40.4404C45.1707 40.6943 45.2439 40.9043 45.3904 41.0703C45.5402 41.2331 45.7973 41.3145 46.1619 41.3145Z" fill="#99A2AD"/>
</svg>
