<svg width="121" height="42" viewBox="0 0 121 42" fill="none" xmlns="http://www.w3.org/2000/svg">
<path d="M60.5 2C67.1274 2 72.5 7.37258 72.5 14C72.5 20.6274 67.1274 26 60.5 26C53.8726 26 48.5 20.6274 48.5 14C48.5 7.37258 53.8726 2 60.5 2ZM60.5 20.5C58.4141 20.5 56.42 21.082 54.7032 22.149C56.3382 23.3146 58.339 24 60.5 24C62.6605 24 64.661 23.3148 66.296 22.15C64.5795 21.0818 62.5857 20.5 60.5 20.5ZM60.5 4C54.9772 4 50.5 8.47715 50.5 14C50.5 16.6157 51.5043 18.9968 53.1482 20.7788C55.2856 19.3082 57.831 18.5 60.5 18.5C63.1693 18.5 65.7149 19.3084 67.8527 20.7774C69.4961 18.9959 70.5 16.6152 70.5 14C70.5 8.47715 66.0228 4 60.5 4ZM60.5 7.5C63.1242 7.5 65.25 9.62584 65.25 12.25C65.25 14.8742 63.1242 17 60.5 17C57.8758 17 55.75 14.8742 55.75 12.25C55.75 9.62584 57.8758 7.5 60.5 7.5ZM60.5 9.5C58.9804 9.5 57.75 10.7304 57.75 12.25C57.75 13.7696 58.9804 15 60.5 15C62.0196 15 63.25 13.7696 63.25 12.25C63.25 10.7304 62.0196 9.5 60.5 9.5Z" fill="#2975CC"/>
<path d="M38.717 39V31.8906H44.4348V39H43.3068V32.7842H39.84V39H38.717ZM46.1229 41.0312V33.7266H47.1189L47.1629 34.3906H47.1873C47.3208 34.179 47.5291 34 47.8123 33.8535C48.0988 33.7038 48.4308 33.6289 48.8084 33.6289C49.5018 33.6289 50.0568 33.8779 50.4734 34.376C50.8901 34.874 51.0984 35.5104 51.0984 36.2852V36.4414C51.0984 37.2129 50.8901 37.8493 50.4734 38.3506C50.0568 38.8486 49.5034 39.0977 48.8133 39.0977C48.4389 39.0977 48.1167 39.0358 47.8465 38.9121C47.5763 38.7852 47.3631 38.6143 47.2068 38.3994V41.0312H46.1229ZM47.2068 37.3691C47.311 37.5938 47.4786 37.7939 47.7098 37.9697C47.9441 38.1455 48.2257 38.2334 48.5545 38.2334C49.046 38.2334 49.4057 38.0641 49.6336 37.7256C49.8647 37.3838 49.9803 36.9574 49.9803 36.4463V36.2754C49.9803 35.7676 49.8647 35.3444 49.6336 35.0059C49.4057 34.6641 49.046 34.4932 48.5545 34.4932C48.2225 34.4932 47.9409 34.5811 47.7098 34.7568C47.4786 34.9326 47.311 35.1328 47.2068 35.3574V37.3691ZM52.059 36.4414V36.2852C52.059 35.4844 52.2982 34.8333 52.7768 34.332C53.2553 33.8307 53.8917 33.5801 54.6859 33.5801C55.4802 33.5801 56.1166 33.8307 56.5951 34.332C57.0736 34.8333 57.3129 35.4844 57.3129 36.2852V36.4414C57.3129 37.2389 57.0736 37.89 56.5951 38.3945C56.1166 38.8958 55.4802 39.1465 54.6859 39.1465C53.8917 39.1465 53.2553 38.8958 52.7768 38.3945C52.2982 37.89 52.059 37.2389 52.059 36.4414ZM53.1771 36.2754V36.4463C53.1771 36.9704 53.3041 37.4082 53.558 37.7598C53.8119 38.1081 54.1879 38.2822 54.6859 38.2822C55.1872 38.2822 55.5648 38.1081 55.8187 37.7598C56.0727 37.4082 56.1996 36.9704 56.1996 36.4463V36.2754C56.1996 35.7546 56.071 35.32 55.8139 34.9717C55.56 34.6201 55.184 34.4443 54.6859 34.4443C54.1879 34.4443 53.8119 34.6201 53.558 34.9717C53.3041 35.32 53.1771 35.7546 53.1771 36.2754ZM59.4014 36.4414C59.4014 36.9655 59.543 37.3952 59.8262 37.7305C60.1094 38.0658 60.5472 38.2497 61.1396 38.2822V34.4443C60.5472 34.4769 60.1094 34.6608 59.8262 34.9961C59.543 35.3314 59.4014 35.7594 59.4014 36.2803V36.4414ZM63.9668 36.2852C63.9668 35.7611 63.8252 35.3314 63.542 34.9961C63.2588 34.6608 62.821 34.4769 62.2285 34.4443V38.2822C62.821 38.2497 63.2588 38.0658 63.542 37.7305C63.8252 37.3952 63.9668 36.9671 63.9668 36.4463V36.2852ZM61.1396 39.1465C60.2477 39.1139 59.5479 38.8551 59.04 38.3701C58.5355 37.8851 58.2832 37.2422 58.2832 36.4414V36.2803C58.2832 35.4827 58.5355 34.8415 59.04 34.3564C59.5479 33.8714 60.2477 33.6126 61.1396 33.5801V31.5049H62.2285V33.5801C63.1204 33.6126 63.8187 33.8714 64.3232 34.3564C64.8278 34.8415 65.0801 35.4844 65.0801 36.2852V36.4463C65.0801 37.2438 64.8278 37.8851 64.3232 38.3701C63.8187 38.8551 63.1204 39.1139 62.2285 39.1465V41.0312H61.1396V39.1465ZM66.358 39V33.7266H67.442V36.8809C67.442 36.9818 67.4404 37.0973 67.4371 37.2275C67.4339 37.3545 67.4306 37.4668 67.4273 37.5645H67.4713C67.5136 37.4798 67.5641 37.387 67.6227 37.2861C67.6813 37.182 67.7431 37.0762 67.8082 36.9688L69.8395 33.7266H70.9381V39H69.8541V35.8457C69.8541 35.748 69.8557 35.6357 69.859 35.5088C69.8622 35.3786 69.8655 35.263 69.8688 35.1621H69.8199C69.7776 35.25 69.7271 35.346 69.6686 35.4502C69.6132 35.5511 69.5514 35.6536 69.483 35.7578L67.4566 39H66.358ZM73.9592 34.5615L73.8713 36.6172C73.8355 37.4798 73.7134 38.1097 73.5051 38.5068C73.2967 38.904 72.9322 39.1025 72.4113 39.1025C72.2941 39.1025 72.1916 39.0944 72.1037 39.0781C72.0158 39.0651 71.9377 39.0439 71.8693 39.0146V38.0771C71.9279 38.0999 71.9865 38.1162 72.0451 38.126C72.107 38.1357 72.1737 38.1406 72.2453 38.1406C72.4862 38.1406 72.6506 38.0251 72.7385 37.7939C72.8264 37.5596 72.8833 37.1234 72.9094 36.4854L73.0266 33.7266H76.9377V39H75.8488V34.5615H73.9592ZM79.6072 33.7266V35.5234H80.7986C81.4497 35.5234 81.9493 35.6797 82.2977 35.9922C82.646 36.3014 82.8201 36.7214 82.8201 37.252C82.8201 37.7858 82.646 38.2106 82.2977 38.5264C81.9493 38.8421 81.4497 39 80.7986 39H78.5232V33.7266H79.6072ZM80.7205 36.3486H79.6072V38.1748H80.7205C81.0883 38.1748 81.3471 38.0885 81.4969 37.916C81.6466 37.7402 81.7215 37.5189 81.7215 37.252C81.7215 36.9883 81.6466 36.7718 81.4969 36.6025C81.3471 36.4333 81.0883 36.3486 80.7205 36.3486Z" fill="#2975CC"/>
</svg>
