<svg width="121" height="42" viewBox="0 0 121 42" fill="none" xmlns="http://www.w3.org/2000/svg">
<path d="M55.6156 14.9999C56.681 14.9999 57.2392 15.1077 57.8205 15.4187C58.3615 15.708 58.792 16.1385 59.0813 16.6794C59.3922 17.2608 59.5 17.8189 59.5 18.8843V21.1156C59.5 22.181 59.3922 22.7391 59.0813 23.3205C58.792 23.8614 58.3615 24.2919 57.8205 24.5812C57.2392 24.8922 56.681 24.9999 55.6156 24.9999H53.3844C52.319 24.9999 51.7608 24.8922 51.1794 24.5812C50.6385 24.2919 50.208 23.8614 49.9187 23.3205C49.6078 22.7391 49.5 22.181 49.5 21.1156V18.8843C49.5 17.8189 49.6078 17.2608 49.9187 16.6794C50.208 16.1385 50.6385 15.708 51.1794 15.4187C51.7608 15.1077 52.319 14.9999 53.3844 14.9999H55.6156ZM67.6156 14.9999C68.681 14.9999 69.2392 15.1077 69.8206 15.4187C70.3615 15.708 70.792 16.1385 71.0813 16.6794C71.3922 17.2608 71.5 17.8189 71.5 18.8843V21.1156C71.5 22.181 71.3922 22.7391 71.0813 23.3205C70.792 23.8614 70.3615 24.2919 69.8206 24.5812C69.2392 24.8922 68.681 24.9999 67.6156 24.9999H65.3844C64.319 24.9999 63.7608 24.8922 63.1794 24.5812C62.6385 24.2919 62.208 23.8614 61.9187 23.3205C61.6078 22.7391 61.5 22.181 61.5 21.1156V18.8843C61.5 17.8189 61.6078 17.2608 61.9187 16.6794C62.208 16.1385 62.6385 15.708 63.1794 15.4187C63.7608 15.1077 64.319 14.9999 65.3844 14.9999H67.6156ZM55.6156 16.9999H53.3844C52.6209 16.9999 52.3747 17.0475 52.1226 17.1823C51.9302 17.2852 51.7852 17.4302 51.6823 17.6226C51.5476 17.8746 51.5 18.1209 51.5 18.8843V21.1156C51.5 21.879 51.5476 22.1253 51.6823 22.3773C51.7852 22.5697 51.9302 22.7147 52.1226 22.8176C52.3747 22.9524 52.6209 22.9999 53.3844 22.9999H55.6156C56.3791 22.9999 56.6253 22.9524 56.8774 22.8176C57.0698 22.7147 57.2148 22.5697 57.3177 22.3773C57.4524 22.1253 57.5 21.879 57.5 21.1156V18.8843C57.5 18.1209 57.4524 17.8746 57.3177 17.6226C57.2148 17.4302 57.0698 17.2852 56.8774 17.1823C56.6253 17.0475 56.3791 16.9999 55.6156 16.9999ZM67.6156 16.9999H65.3844C64.6209 16.9999 64.3747 17.0475 64.1226 17.1823C63.9303 17.2852 63.7852 17.4302 63.6823 17.6226C63.5476 17.8746 63.5 18.1209 63.5 18.8843V21.1156C63.5 21.879 63.5476 22.1253 63.6823 22.3773C63.7852 22.5697 63.9303 22.7147 64.1226 22.8176C64.3747 22.9524 64.6209 22.9999 65.3844 22.9999H67.6156C68.3791 22.9999 68.6253 22.9524 68.8774 22.8176C69.0697 22.7147 69.2148 22.5697 69.3177 22.3773C69.4524 22.1253 69.5 21.879 69.5 21.1156V18.8843C69.5 18.1209 69.4524 17.8746 69.3177 17.6226C69.2148 17.4302 69.0697 17.2852 68.8774 17.1823C68.6253 17.0475 68.3791 16.9999 67.6156 16.9999ZM67.3915 2.4125C68.0224 2.60375 68.4933 2.92221 69.2467 3.67555L70.8244 5.25328C71.5777 6.00662 71.8962 6.47752 72.0874 7.10847C72.2654 7.69553 72.2654 8.30436 72.0874 8.89143C71.8962 9.52238 71.5777 9.99327 70.8244 10.7466L69.2467 12.3244C68.4933 13.0777 68.0224 13.3962 67.3915 13.5874C66.8044 13.7653 66.1956 13.7653 65.6085 13.5874C64.9776 13.3962 64.5067 13.0777 63.7533 12.3244L62.1756 10.7466C61.4223 9.99327 61.1038 9.52238 60.9126 8.89143C60.7346 8.30436 60.7346 7.69553 60.9126 7.10847C61.1038 6.47752 61.4223 6.00662 62.1756 5.25328L63.7533 3.67555C64.5067 2.92221 64.9776 2.60375 65.6085 2.4125C66.1956 2.23457 66.8044 2.23457 67.3915 2.4125ZM55.6156 2.99995C56.681 2.99995 57.2392 3.10773 57.8205 3.41866C58.3615 3.70796 58.792 4.13846 59.0813 4.6794C59.3922 5.26078 59.5 5.81894 59.5 6.88432V9.11558C59.5 10.181 59.3922 10.7391 59.0813 11.3205C58.792 11.8614 58.3615 12.2919 57.8205 12.5812C57.2392 12.8922 56.681 12.9999 55.6156 12.9999H53.3844C52.319 12.9999 51.7608 12.8922 51.1794 12.5812C50.6385 12.2919 50.208 11.8614 49.9187 11.3205C49.6078 10.7391 49.5 10.181 49.5 9.11558V6.88432C49.5 5.81894 49.6078 5.26078 49.9187 4.6794C50.208 4.13846 50.6385 3.70796 51.1794 3.41866C51.7608 3.10773 52.319 2.99995 53.3844 2.99995H55.6156ZM66.1887 4.32652C65.9151 4.40942 65.7074 4.54992 65.1675 5.08976L63.5898 6.6675C63.05 7.20734 62.9095 7.41508 62.8266 7.6886C62.7633 7.89741 62.7633 8.10249 62.8266 8.3113C62.9095 8.58481 63.05 8.79256 63.5898 9.3324L65.1675 10.9101C65.7074 11.45 65.9151 11.5905 66.1887 11.6734C66.3975 11.7367 66.6025 11.7367 66.8113 11.6734C67.0849 11.5905 67.2926 11.45 67.8325 10.9101L69.4102 9.3324C69.95 8.79256 70.0905 8.58481 70.1734 8.3113C70.2367 8.10249 70.2367 7.89741 70.1734 7.6886C70.0905 7.41508 69.95 7.20734 69.4102 6.6675L67.8325 5.08976C67.2926 4.54992 67.0849 4.40942 66.8113 4.32652C66.6025 4.26323 66.3975 4.26323 66.1887 4.32652ZM55.6156 4.99995H53.3844C52.6209 4.99995 52.3747 5.0475 52.1226 5.18229C51.9302 5.28518 51.7852 5.4302 51.6823 5.6226C51.5476 5.87462 51.5 6.12087 51.5 6.88432V9.11558C51.5 9.87903 51.5476 10.1253 51.6823 10.3773C51.7852 10.5697 51.9302 10.7147 52.1226 10.8176C52.3747 10.9524 52.6209 10.9999 53.3844 10.9999H55.6156C56.3791 10.9999 56.6253 10.9524 56.8774 10.8176C57.0698 10.7147 57.2148 10.5697 57.3177 10.3773C57.4524 10.1253 57.5 9.87903 57.5 9.11558V6.88432C57.5 6.12087 57.4524 5.87462 57.3177 5.6226C57.2148 5.4302 57.0698 5.28518 56.8774 5.18229C56.6253 5.0475 56.3791 4.99995 55.6156 4.99995Z" fill="#2975CC"/>
<path d="M38.9562 35.6553V35.2354C38.9562 34.1351 39.2541 33.279 39.8498 32.667C40.4455 32.0518 41.1942 31.7441 42.0959 31.7441C42.9976 31.7441 43.6942 31.9785 44.1857 32.4473C44.6773 32.916 44.9442 33.4889 44.9865 34.166L44.9914 34.2246H43.8586L43.8537 34.166C43.8309 33.7656 43.6779 33.4157 43.3947 33.1162C43.1148 32.8167 42.6818 32.667 42.0959 32.667C41.5132 32.667 41.0347 32.8867 40.6604 33.3262C40.286 33.7656 40.0988 34.3971 40.0988 35.2207V35.6699C40.0988 36.474 40.2844 37.1006 40.6555 37.5498C41.0298 37.999 41.51 38.2236 42.0959 38.2236C42.6721 38.2236 43.1001 38.0723 43.3801 37.7695C43.66 37.4668 43.8179 37.1185 43.8537 36.7246L43.8586 36.666H44.9914L44.9865 36.7246C44.9279 37.3984 44.6561 37.9714 44.1711 38.4434C43.6893 38.9121 42.9976 39.1465 42.0959 39.1465C41.1942 39.1465 40.4455 38.8405 39.8498 38.2285C39.2541 37.6133 38.9562 36.7555 38.9562 35.6553ZM45.9568 36.4414V36.2852C45.9568 35.4876 46.188 34.8382 46.6502 34.3369C47.1124 33.8324 47.7195 33.5801 48.4715 33.5801C49.2299 33.5801 49.8143 33.8161 50.2244 34.2881C50.6378 34.7568 50.8445 35.3932 50.8445 36.1973V36.627H46.66V35.8213H49.7508V35.7773C49.7508 35.4062 49.6499 35.0889 49.448 34.8252C49.2462 34.5583 48.9223 34.4248 48.4764 34.4248C48.0109 34.4248 47.6561 34.6022 47.4119 34.957C47.171 35.3118 47.0506 35.7513 47.0506 36.2754V36.4463C47.0506 36.9704 47.1792 37.4098 47.4363 37.7646C47.6935 38.1195 48.0874 38.2969 48.618 38.2969C48.95 38.2969 49.2365 38.2253 49.4773 38.082C49.7182 37.9388 49.9135 37.7712 50.0633 37.5791L50.7762 38.1357C50.6069 38.3929 50.3367 38.6257 49.9656 38.834C49.5945 39.0423 49.1453 39.1465 48.618 39.1465C47.7618 39.1465 47.1043 38.8958 46.6453 38.3945C46.1863 37.89 45.9568 37.2389 45.9568 36.4414ZM52.0053 41.0312V33.7266H53.0014L53.0453 34.3906H53.0697C53.2032 34.179 53.4115 34 53.6947 33.8535C53.9812 33.7038 54.3132 33.6289 54.6908 33.6289C55.3842 33.6289 55.9392 33.8779 56.3559 34.376C56.7725 34.874 56.9809 35.5104 56.9809 36.2852V36.4414C56.9809 37.2129 56.7725 37.8493 56.3559 38.3506C55.9392 38.8486 55.3858 39.0977 54.6957 39.0977C54.3214 39.0977 53.9991 39.0358 53.7289 38.9121C53.4587 38.7852 53.2455 38.6143 53.0893 38.3994V41.0312H52.0053ZM53.0893 37.3691C53.1934 37.5938 53.3611 37.7939 53.5922 37.9697C53.8266 38.1455 54.1081 38.2334 54.4369 38.2334C54.9284 38.2334 55.2881 38.0641 55.516 37.7256C55.7471 37.3838 55.8627 36.9574 55.8627 36.4463V36.2754C55.8627 35.7676 55.7471 35.3444 55.516 35.0059C55.2881 34.6641 54.9284 34.4932 54.4369 34.4932C54.1049 34.4932 53.8233 34.5811 53.5922 34.7568C53.3611 34.9326 53.1934 35.1328 53.0893 35.3574V37.3691ZM58.249 39V33.7266H60.6465C61.2552 33.7266 61.7256 33.8438 62.0576 34.0781C62.3929 34.3092 62.5605 34.6527 62.5605 35.1084C62.5605 35.4144 62.4727 35.6683 62.2969 35.8701C62.1211 36.0687 61.8818 36.2021 61.5791 36.2705V36.2852C61.9404 36.3438 62.2236 36.4772 62.4287 36.6855C62.637 36.8906 62.7412 37.1576 62.7412 37.4863C62.7412 37.9551 62.5671 38.3245 62.2188 38.5947C61.8737 38.8649 61.4033 39 60.8076 39H58.249ZM59.3281 35.9238H60.5635C60.8825 35.9238 61.112 35.8604 61.252 35.7334C61.3919 35.6064 61.4619 35.429 61.4619 35.2012C61.4619 34.9798 61.3919 34.8154 61.252 34.708C61.112 34.6006 60.8825 34.5436 60.5635 34.5371H59.3281V35.9238ZM59.3281 38.1895H60.7148C61.0404 38.1895 61.278 38.1243 61.4277 37.9941C61.5775 37.8639 61.6523 37.6833 61.6523 37.4521C61.6523 37.2243 61.5775 37.0452 61.4277 36.915C61.2812 36.7848 61.0436 36.7197 60.7148 36.7197H59.3281V38.1895ZM64.024 39V33.7266H65.108V36.8809C65.108 36.9818 65.1064 37.0973 65.1031 37.2275C65.0999 37.3545 65.0966 37.4668 65.0934 37.5645H65.1373C65.1796 37.4798 65.2301 37.387 65.2887 37.2861C65.3473 37.182 65.4091 37.0762 65.4742 36.9688L67.5055 33.7266H68.6041V39H67.5201V35.8457C67.5201 35.748 67.5217 35.6357 67.525 35.5088C67.5283 35.3786 67.5315 35.263 67.5348 35.1621H67.4859C67.4436 35.25 67.3932 35.346 67.3346 35.4502C67.2792 35.5511 67.2174 35.6536 67.149 35.7578L65.1227 39H64.024ZM69.8723 36.4414V36.2852C69.8723 35.4844 70.1018 34.8333 70.5607 34.332C71.023 33.8307 71.6545 33.5801 72.4553 33.5801C73.2007 33.5801 73.7671 33.7705 74.1545 34.1514C74.5419 34.5322 74.7372 34.9587 74.7404 35.4307V35.4648H73.676V35.4355C73.676 35.1719 73.5783 34.9391 73.383 34.7373C73.191 34.5355 72.8801 34.4346 72.4504 34.4346C71.9523 34.4346 71.5845 34.612 71.3469 34.9668C71.1092 35.3184 70.9904 35.7546 70.9904 36.2754V36.4463C70.9904 36.9704 71.1076 37.4098 71.342 37.7646C71.5796 38.1162 71.9491 38.292 72.4504 38.292C72.8833 38.292 73.1958 38.1911 73.3879 37.9893C73.58 37.7874 73.676 37.5547 73.676 37.291V37.2617H74.7404V37.291C74.7404 37.7663 74.5451 38.1943 74.1545 38.5752C73.7671 38.9561 73.2007 39.1465 72.4553 39.1465C71.6545 39.1465 71.023 38.8958 70.5607 38.3945C70.1018 37.8932 69.8723 37.2422 69.8723 36.4414ZM76.9217 33.7266V35.5234H78.1131C78.7641 35.5234 79.2638 35.6797 79.6121 35.9922C79.9604 36.3014 80.1346 36.7214 80.1346 37.252C80.1346 37.7858 79.9604 38.2106 79.6121 38.5264C79.2638 38.8421 78.7641 39 78.1131 39H75.8377V33.7266H76.9217ZM78.035 36.3486H76.9217V38.1748H78.035C78.4028 38.1748 78.6616 38.0885 78.8113 37.916C78.9611 37.7402 79.0359 37.5189 79.0359 37.252C79.0359 36.9883 78.9611 36.7718 78.8113 36.6025C78.6616 36.4333 78.4028 36.3486 78.035 36.3486ZM80.7889 39V33.7266H81.8777V39H80.7889Z" fill="#2975CC"/>
</svg>
