<svg width="50" height="50" viewBox="0 0 67 60" fill="none" xmlns="http://www.w3.org/2000/svg">
    <path fill-rule="evenodd" clip-rule="evenodd"
          d="M25.9267 60.0002H40.74C51.1433 60.0002 56.3467 60.0001 60.0833 57.5501C61.6961 56.494 63.0848 55.1302 64.17 53.5368C66.6667 49.8702 66.6667 44.7602 66.6667 34.5468C66.6667 24.3335 66.6667 19.2235 64.17 15.5568C63.0848 13.9635 61.6961 12.5997 60.0833 11.5435C57.6833 9.96682 54.6767 9.40349 50.0733 9.20349C47.8767 9.20349 45.9867 7.57016 45.5567 5.45349C45.2281 3.90305 44.3742 2.51361 43.1395 1.51999C41.9048 0.526374 40.3648 -0.0104827 38.78 0.000155103H27.8867C24.5933 0.000155103 21.7567 2.28349 21.11 5.45349C20.68 7.57016 18.79 9.20349 16.5933 9.20349C11.9933 9.40349 8.98667 9.97015 6.58333 11.5435C4.97179 12.6 3.58424 13.9638 2.5 15.5568C0 19.2235 0 24.3302 0 34.5468C0 44.7635 1.98682e-07 49.8668 2.49667 53.5368C3.57667 55.1235 4.96333 56.4868 6.58333 57.5501C10.32 60.0001 15.5233 60.0002 25.9267 60.0002ZM33.3333 20.9102C25.6633 20.9102 19.4433 27.0135 19.4433 34.5435C19.4433 42.0735 25.6667 48.1868 33.3333 48.1868C41 48.1868 47.2233 42.0802 47.2233 34.5502C47.2233 27.0202 41 20.9102 33.3333 20.9102ZM33.3333 26.3635C28.7333 26.3635 25 30.0268 25 34.5468C25 39.0635 28.7333 42.7268 33.3333 42.7268C37.9333 42.7268 41.6667 39.0635 41.6667 34.5468C41.6667 30.0302 37.9333 26.3635 33.3333 26.3635ZM49.0733 23.6368C49.0733 22.1302 50.3167 20.9102 51.8533 20.9102H55.5533C57.0867 20.9102 58.3333 22.1302 58.3333 23.6368C58.3263 24.3665 58.0299 25.0635 57.5093 25.5748C56.9886 26.086 56.2863 26.3697 55.5567 26.3635H51.8533C51.4918 26.367 51.133 26.2993 50.7976 26.1641C50.4622 26.029 50.1567 25.8291 49.8986 25.5759C49.6404 25.3228 49.4347 25.0212 49.2931 24.6885C49.1515 24.3558 49.0768 23.9984 49.0733 23.6368Z"
          fill="currentColor"/>
</svg>
