<svg width="50" height="50" viewBox="0 0 80 80" fill="none" xmlns="http://www.w3.org/2000/svg">
    <path d="M27.9333 68.56L11.4433 52.0667C8.42667 49.0533 6.92 47.5467 6.70667 45.7067C6.65871 45.2958 6.65871 44.8808 6.70667 44.47C6.92 42.63 8.42666 41.12 11.44 38.1067C14.4567 35.0933 15.9633 33.5867 17.8033 33.3733C18.2167 33.3222 18.6278 33.3222 19.0367 33.3733C20.88 33.5867 22.3867 35.0933 25.4033 38.1067L27.8467 40.5533L40.5533 27.8433L38.11 25.4C35.0933 22.3867 33.5867 20.88 33.3733 19.04C33.3254 18.6292 33.3254 18.2142 33.3733 17.8033C33.5867 15.9633 35.0933 14.4567 38.1067 11.44C41.1233 8.42667 42.63 6.92 44.47 6.70667C44.8797 6.65897 45.2936 6.65897 45.7033 6.70667C47.5467 6.92 49.0533 8.42667 52.07 11.44L68.5633 27.94C71.58 30.9533 73.0867 32.46 73.3 34.3C73.3511 34.7133 73.3511 35.1244 73.3 35.5333C73.0867 37.3767 71.58 38.8833 68.5667 41.9C65.55 44.91 64.0433 46.4167 62.2033 46.6333C61.7936 46.681 61.3797 46.681 60.97 46.6333C59.1267 46.4167 57.62 44.91 54.6033 41.9L50.9 38.19L38.1933 50.9L41.8967 54.6067C44.9133 57.62 46.42 59.1267 46.6333 60.9667C46.6844 61.38 46.6844 61.7911 46.6333 62.2C46.42 64.0433 44.9133 65.55 41.9 68.5667C38.8833 71.5767 37.3767 73.0833 35.5367 73.3C35.1269 73.3477 34.7131 73.3477 34.3033 73.3C32.46 73.0833 30.9533 71.5767 27.9367 68.5667"
          fill="currentColor"/>
    <path fill-rule="evenodd" clip-rule="evenodd"
          d="M58.2967 6.55999C58.7654 6.09182 59.4008 5.82886 60.0633 5.82886C60.7258 5.82886 61.3613 6.09182 61.83 6.55999L72.1767 16.9067C72.6183 17.3806 72.8587 18.0074 72.8473 18.6551C72.8358 19.3027 72.5735 19.9207 72.1154 20.3787C71.6574 20.8368 71.0394 21.0991 70.3917 21.1106C69.7441 21.122 69.1173 20.8816 68.6433 20.44L58.2933 10.0933C57.8252 9.62457 57.5622 8.98916 57.5622 8.32666C57.5622 7.66416 57.8285 7.02874 58.2967 6.55999ZM6.55334 58.2933C7.02209 57.8252 7.6575 57.5622 8.32 57.5622C8.98251 57.5622 9.61792 57.8252 10.0867 58.2933L20.4367 68.64C20.8783 69.1139 21.1187 69.7407 21.1073 70.3884C21.0958 71.0361 20.8335 71.654 20.3754 72.1121C19.9174 72.5701 19.2994 72.8325 18.6517 72.8439C18.0041 72.8553 17.3773 72.6149 16.9033 72.1733L6.55334 61.8267C6.08517 61.3579 5.8222 60.7225 5.8222 60.06C5.8222 59.3975 6.08517 58.7621 6.55334 58.2933Z"
          fill="currentColor"/>
</svg>
