<svg width="50" height="50" viewBox="0 0 80 80" fill="none" xmlns="http://www.w3.org/2000/svg">
    <path d="M44.79 60.92C48.0833 54.7133 59.06 54.7133 59.06 54.7133C70.5 54.5933 72.0467 47.6467 73.08 44.1367C72.1686 51.4071 68.8885 58.1751 63.7463 63.3951C58.604 68.615 51.886 71.9963 44.63 73.0167C43.5533 70.75 42.28 65.65 44.79 60.92Z"
          fill="currentColor"/>
    <path d="M16.6867 19.4467L15.3133 18.2733C15.201 18.1748 15.0921 18.0725 14.9867 17.9667C9.61394 24.0476 6.65423 31.8856 6.66667 40C6.66667 58.2 21.2567 73 39.38 73.3267C38.2033 69.81 37.4333 64.1133 40.3733 58.5767C43.0733 53.49 48.5067 51.4867 51.9667 50.6333C54.2208 50.0894 56.5255 49.7822 58.8433 49.7167H59.02C63.6233 49.6633 65.41 48.3067 66.2333 47.3767C67.2533 46.23 67.6533 44.87 68.21 42.9733L68.2833 42.7267C68.5998 41.6507 69.2688 40.7123 70.1829 40.0624C71.097 39.4125 72.2031 39.0888 73.3233 39.1433C73.1293 31.1459 70.0541 23.4874 64.6633 17.5767C64.5567 18.1667 64.43 18.72 64.3067 19.2067C63.74 21.41 62.7933 23.79 61.6267 25.5567C60.49 27.29 58.4633 28.8333 57.12 29.8C56.1033 30.53 55.0633 31.1333 54.21 31.63L53.9033 31.8067C53.13 32.25 52.5167 32.6067 51.93 32.99C50.7433 33.7733 50.03 34.47 49.55 35.4133C49.8433 36.4867 50.05 37.7233 50.0567 39.0133C50.0633 42.0867 48.49 44.5133 46.6133 46.0267C44.7223 47.539 42.368 48.3536 39.9467 48.3333C30.1133 48.2267 24.3467 40.2033 23.6033 31.94C23.3867 29.5367 22.3067 26.9467 20.7967 24.5333C19.6405 22.6756 18.2602 20.9672 16.6867 19.4467Z"
          fill="currentColor"/>
    <path d="M28.5833 31.49C27.96 24.5433 22.6033 18.07 20 15.7033L18.5667 14.47C24.5653 9.41924 32.1582 6.65488 40 6.66666C47.38 6.66666 54.2 9.06666 59.72 13.12C60.5 15.49 59.0133 20.44 57.4533 22.8067C56.8867 23.6633 55.6067 24.73 54.2 25.74C51.0333 28.0167 47.0333 29.14 45 33.3333C44.4918 34.3891 44.3932 35.5958 44.7233 36.72C44.9233 37.4533 45.0567 38.25 45.0567 39.0267C45.0633 41.5433 42.5167 43.36 40 43.3333C33.4533 43.2633 29.1667 37.9867 28.5833 31.49Z"
          fill="currentColor"/>
</svg>
