<svg width="50" height="50" viewBox="0 0 67 65" fill="none" xmlns="http://www.w3.org/2000/svg">
    <path fill-rule="evenodd" clip-rule="evenodd"
          d="M66.6667 57.3533V33.3333C66.6667 14.9233 51.7433 0 33.3333 0C14.9233 0 0 14.9233 0 33.3333V57.3533C0.000195766 58.3347 0.251274 59.2997 0.729388 60.1568C1.2075 61.0138 1.89678 61.7344 2.73175 62.25C3.56671 62.7657 4.51965 63.0594 5.50005 63.1031C6.48045 63.1469 7.45575 62.9393 8.33333 62.5C9.85244 61.7401 11.5455 61.3953 13.2408 61.5007C14.9361 61.6061 16.5734 62.1578 17.9867 63.1C19.5697 64.1563 21.4302 64.72 23.3333 64.72C25.2364 64.72 27.0969 64.1563 28.68 63.1L29.8567 62.32C30.8862 61.6335 32.0959 61.2672 33.3333 61.2672C34.5708 61.2672 35.7805 61.6335 36.81 62.32L37.9867 63.1033C39.5697 64.1596 41.4302 64.7233 43.3333 64.7233C45.2364 64.7233 47.0969 64.1596 48.68 63.1033C50.0937 62.1605 51.7316 61.6085 53.4275 61.5031C55.1235 61.3977 56.8171 61.7428 58.3367 62.5033C59.2144 62.9419 60.1896 63.1489 61.1698 63.1047C62.15 63.0604 63.1026 62.7663 63.9372 62.2503C64.7718 61.7343 65.4606 61.0136 65.9383 60.1565C66.416 59.2995 66.6668 58.3345 66.6667 57.3533ZM46.6667 28.3333C46.6667 31.0933 45.1733 33.3333 43.3333 33.3333C41.4933 33.3333 40 31.0933 40 28.3333C40 25.5733 41.4933 23.3333 43.3333 23.3333C45.1733 23.3333 46.6667 25.5733 46.6667 28.3333ZM23.3333 33.3333C25.1733 33.3333 26.6667 31.0933 26.6667 28.3333C26.6667 25.5733 25.1733 23.3333 23.3333 23.3333C21.4933 23.3333 20 25.5733 20 28.3333C20 31.0933 21.4933 33.3333 23.3333 33.3333Z"
          fill="currentColor"/>
</svg>
