<svg width="50" height="50" viewBox="0 0 80 80" fill="none" xmlns="http://www.w3.org/2000/svg">
    <path fill-rule="evenodd" clip-rule="evenodd"
          d="M40 53.3333C46.1884 53.3333 52.1233 50.875 56.4992 46.4992C60.875 42.1233 63.3333 36.1884 63.3333 30C63.3333 23.8116 60.875 17.8767 56.4992 13.5008C52.1233 9.125 46.1884 6.66667 40 6.66667C33.8116 6.66667 27.8767 9.125 23.5008 13.5008C19.125 17.8767 16.6667 23.8116 16.6667 30C16.6667 36.1884 19.125 42.1233 23.5008 46.4992C27.8767 50.875 33.8116 53.3333 40 53.3333ZM40 20C39.0533 20 38.42 21.1333 37.1533 23.41L36.8267 23.9967C36.4667 24.6433 36.2867 24.9633 36.0067 25.1767C35.7233 25.39 35.3733 25.47 34.6733 25.6267L34.04 25.7733C31.58 26.33 30.35 26.6067 30.0567 27.5467C29.7633 28.4867 30.6033 29.47 32.28 31.43L32.7133 31.9367C33.19 32.4933 33.43 32.77 33.5367 33.1167C33.6433 33.4633 33.6067 33.8333 33.5367 34.5767L33.47 35.2533C33.2167 37.87 33.09 39.18 33.8533 39.76C34.62 40.34 35.7733 39.81 38.0767 38.75L38.67 38.4767C39.3267 38.1767 39.6533 38.0267 40 38.0267C40.3467 38.0267 40.6733 38.1767 41.33 38.4767L41.9233 38.75C44.2267 39.8133 45.38 40.34 46.1467 39.76C46.9133 39.18 46.7833 37.87 46.53 35.2533L46.4633 34.5767C46.3933 33.8333 46.3567 33.4633 46.4633 33.1167C46.57 32.77 46.81 32.4933 47.2867 31.9367L47.72 31.43C49.3967 29.47 50.2367 28.49 49.9433 27.5467C49.65 26.6067 48.42 26.33 45.96 25.7733L45.3267 25.6267C44.6267 25.47 44.2767 25.3933 43.9933 25.1767C43.7133 24.9633 43.5333 24.6433 43.1733 23.9967L42.8467 23.41C41.58 21.1333 40.9467 20 40 20Z"
          fill="currentColor"/>
    <path d="M23.6433 53.1367L22.38 57.7433C20.2867 65.3833 19.24 69.2033 20.6367 71.2933C21.1267 72.0267 21.7833 72.6133 22.5467 73.0033C24.72 74.11 28.08 72.36 34.7967 68.86C37.03 67.6933 38.15 67.1133 39.3367 66.9867C39.7778 66.9425 40.2222 66.9425 40.6633 66.9867C41.85 67.1133 42.9667 67.6967 45.2033 68.86C51.92 72.36 55.28 74.11 57.4533 73.0033C58.2167 72.6133 58.8733 72.0267 59.3633 71.2933C60.7633 69.2033 59.7133 65.3833 57.62 57.7433L56.3567 53.1367C51.5768 56.5262 45.8597 58.3426 40 58.3333C34.1403 58.3426 28.4232 56.5262 23.6433 53.1367Z"
          fill="currentColor"/>
</svg>
