<svg width="50" height="50" viewBox="0 0 72 70" fill="none" xmlns="http://www.w3.org/2000/svg">
    <path fill-rule="evenodd" clip-rule="evenodd"
          d="M45.8333 0H52.5C58.7867 0 61.9267 -1.98682e-07 63.88 1.95333C65.8333 3.90667 65.8333 7.04667 65.8333 13.3333V64.1667H69.1667C69.8297 64.1667 70.4656 64.4301 70.9344 64.8989C71.4033 65.3677 71.6667 66.0036 71.6667 66.6667C71.6667 67.3297 71.4033 67.9656 70.9344 68.4344C70.4656 68.9033 69.8297 69.1667 69.1667 69.1667H2.5C1.83696 69.1667 1.20107 68.9033 0.732233 68.4344C0.263392 67.9656 0 67.3297 0 66.6667C0 66.0036 0.263392 65.3677 0.732233 64.8989C1.20107 64.4301 1.83696 64.1667 2.5 64.1667H5.83333V23.3333C5.83333 17.0467 5.83333 13.9067 7.78667 11.9533C9.74 10 12.88 10 19.1667 10H32.5C38.7867 10 41.9267 10 43.88 11.9533C45.8333 13.9067 45.8333 17.0467 45.8333 23.3333V64.1667H50.8333V23.0333C50.8333 20.15 50.8333 17.5033 50.5433 15.3533C50.2267 12.9833 49.4767 10.4767 47.4167 8.42C45.3567 6.35667 42.85 5.60667 40.4833 5.28667C38.36 5.00333 35.7567 5 32.92 5C33.2 3.71 33.67 2.73333 34.4533 1.95333C36.4067 -1.98682e-07 39.5467 0 45.8333 0ZM13.3333 20C13.3333 19.337 13.5967 18.7011 14.0656 18.2322C14.5344 17.7634 15.1703 17.5 15.8333 17.5H35.8333C36.4964 17.5 37.1323 17.7634 37.6011 18.2322C38.0699 18.7011 38.3333 19.337 38.3333 20C38.3333 20.663 38.0699 21.2989 37.6011 21.7678C37.1323 22.2366 36.4964 22.5 35.8333 22.5H15.8333C15.1703 22.5 14.5344 22.2366 14.0656 21.7678C13.5967 21.2989 13.3333 20.663 13.3333 20ZM13.3333 30C13.3333 29.337 13.5967 28.7011 14.0656 28.2322C14.5344 27.7634 15.1703 27.5 15.8333 27.5H35.8333C36.4964 27.5 37.1323 27.7634 37.6011 28.2322C38.0699 28.7011 38.3333 29.337 38.3333 30C38.3333 30.663 38.0699 31.2989 37.6011 31.7678C37.1323 32.2366 36.4964 32.5 35.8333 32.5H15.8333C15.1703 32.5 14.5344 32.2366 14.0656 31.7678C13.5967 31.2989 13.3333 30.663 13.3333 30ZM13.3333 40C13.3333 39.337 13.5967 38.7011 14.0656 38.2322C14.5344 37.7634 15.1703 37.5 15.8333 37.5H35.8333C36.4964 37.5 37.1323 37.7634 37.6011 38.2322C38.0699 38.7011 38.3333 39.337 38.3333 40C38.3333 40.663 38.0699 41.2989 37.6011 41.7678C37.1323 42.2366 36.4964 42.5 35.8333 42.5H15.8333C15.1703 42.5 14.5344 42.2366 14.0656 41.7678C13.5967 41.2989 13.3333 40.663 13.3333 40ZM25.8333 54.1667C26.4964 54.1667 27.1323 54.4301 27.6011 54.8989C28.0699 55.3677 28.3333 56.0036 28.3333 56.6667V64.1667H23.3333V56.6667C23.3333 56.0036 23.5967 55.3677 24.0656 54.8989C24.5344 54.4301 25.1703 54.1667 25.8333 54.1667Z"
          fill="currentColor"/>
</svg>
